<svg xmlns="http://www.w3.org/2000/svg" viewBox="0 0 23 19" width="36" height="30">
	<style>
		tspan { white-space:pre }
		.shp0 { fill: #00b074 } 
	</style>
	<g id="Layer">
		<g id="Layer">
			<path id="Layer" class="shp0" d="M9.83 18.8C9.78 18.86 9.72 18.91 9.65 18.94C9.58 18.98 9.51 19 9.43 19C9.36 19 9.28 18.99 9.21 18.96C9.14 18.94 9.07 18.9 9.02 18.85L0.18 10.47C0.13 10.42 0.08 10.35 0.05 10.28C0.02 10.21 0 10.14 0 10.06C0 9.98 0.01 9.91 0.04 9.84C0.07 9.76 0.11 9.7 0.16 9.64L2.97 6.66C3.03 6.61 3.09 6.56 3.16 6.53C3.23 6.5 3.31 6.48 3.38 6.48C3.46 6.48 3.54 6.49 3.61 6.52C3.68 6.55 3.75 6.59 3.8 6.64L8.63 11.22C8.68 11.27 8.75 11.31 8.82 11.34C8.89 11.36 8.97 11.37 9.04 11.37C9.12 11.37 9.19 11.35 9.26 11.31C9.33 11.28 9.39 11.23 9.44 11.17L18.87 0.2C18.92 0.14 18.98 0.1 19.05 0.06C19.12 0.03 19.19 0.01 19.27 0C19.34 0 19.42 0 19.49 0.03C19.57 0.05 19.63 0.09 19.69 0.14L22.8 2.82C23.04 3.03 23.07 3.4 22.86 3.64L9.83 18.8Z" />
		</g>
	</g>
</svg>