<svg xmlns="http://www.w3.org/2000/svg" width="7" height="10" viewBox="0 0 7 10"><g><g><g><g><path d="M.437 4h6.125c.12 0 .222-.044.309-.132A.433.433 0 0 0 7 3.556a.433.433 0 0 0-.13-.313L3.807.132A.417.417 0 0 0 3.5 0a.415.415 0 0 0-.307.132L.13 3.242a.43.43 0 0 0-.13.314c0 .12.043.224.13.312.086.088.189.132.307.132z"/></g><g><path d="M6.562 6H.437a.418.418 0 0 0-.307.132.43.43 0 0 0-.13.312c0 .12.043.225.13.313l3.063 3.111c.086.088.189.132.307.132s.22-.044.307-.132l3.064-3.111A.433.433 0 0 0 7 6.444a.433.433 0 0 0-.13-.312A.418.418 0 0 0 6.562 6z"/></g></g></g></g></svg>