<svg xmlns="http://www.w3.org/2000/svg" width="22" height="22" viewBox="0 0 22 22"><g><g><g><g><g><path fill="#666" d="M21.62 13.846a10.922 10.922 0 0 1-5.122 6.676 10.934 10.934 0 0 1-8.344 1.099 10.922 10.922 0 0 1-6.676-5.123A10.925 10.925 0 0 1 .38 8.154a10.92 10.92 0 0 1 5.122-6.676A10.923 10.923 0 0 1 13.845.379a10.92 10.92 0 0 1 6.677 5.123 10.922 10.922 0 0 1 1.098 8.344zm-2.09-7.771a9.786 9.786 0 0 0-5.98-4.59 9.792 9.792 0 0 0-7.474.984 9.787 9.787 0 0 0-4.59 5.981 9.784 9.784 0 0 0 .983 7.475 9.786 9.786 0 0 0 5.982 4.59c2.54.68 5.195.331 7.474-.984a9.786 9.786 0 0 0 4.589-5.982 9.788 9.788 0 0 0-.983-7.474z"/></g></g></g><g><g><path fill="#666" d="M17.134 6.403a.383.383 0 0 1-.38.389h-.683v9.13c0 1.145-.91 2.078-2.026 2.078H8.088c-1.116 0-2.025-.933-2.025-2.078v-9.13h-.684a.383.383 0 0 1-.38-.389c0-.216.17-.388.38-.388h2.838V5.54c0-.85.673-1.54 1.5-1.54h2.698c.828 0 1.501.69 1.501 1.54v.475h2.839c.21 0 .379.172.379.388zm-8.16-.388h4.185V5.54a.755.755 0 0 0-.744-.763H9.718a.755.755 0 0 0-.743.763zm6.341 9.907v-9.13H6.82v9.13c0 .717.57 1.3 1.268 1.3h5.957c.699 0 1.268-.583 1.268-1.3z"/></g><g><path fill="#666" d="M11.066 15.2c.26 0 .467-.169.467-.38V8.113c0-.211-.207-.38-.467-.38-.259 0-.467.169-.467.38v6.705c0 .21.208.382.467.382z"/></g><g><path fill="#666" d="M9.2 15.2c.26 0 .467-.19.467-.427V8.16c0-.238-.208-.428-.466-.428-.26 0-.468.19-.468.428v6.612c0 .237.211.427.468.427z"/></g><g><path fill="#666" d="M12.933 15.2c.26 0 .467-.19.467-.427V8.16c0-.238-.208-.428-.467-.428-.26 0-.467.19-.467.428v6.612c0 .237.208.427.467.427z"/></g></g></g></g></svg>