<svg xmlns="http://www.w3.org/2000/svg" width="22" height="22" viewBox="0 0 22 22"><g><g><g><g><g><path fill="#666" d="M21.62 13.846a10.921 10.921 0 0 1-5.122 6.676 10.932 10.932 0 0 1-8.344 1.099 10.922 10.922 0 0 1-6.676-5.123A10.925 10.925 0 0 1 .38 8.154a10.92 10.92 0 0 1 5.122-6.676A10.923 10.923 0 0 1 13.845.379a10.92 10.92 0 0 1 6.677 5.123 10.922 10.922 0 0 1 1.098 8.344zm-2.09-7.771a9.786 9.786 0 0 0-5.98-4.59 9.792 9.792 0 0 0-7.474.984 9.786 9.786 0 0 0-4.59 5.982 9.784 9.784 0 0 0 .983 7.474 9.786 9.786 0 0 0 5.982 4.59c2.54.68 5.195.331 7.474-.984a9.786 9.786 0 0 0 4.589-5.982 9.788 9.788 0 0 0-.983-7.474z"/></g></g></g><g><g><path fill="#666" d="M12.462 7.003l2.44 2.453-6.178 6.209-2.44-2.453zm4.293.593L15.54 8.818l-2.441-2.453 1.043-1.048a1.077 1.077 0 0 1 1.526 0l1.088 1.094a.84.84 0 0 1 0 1.185zm-11.132 6.28l2.44 2.453-2.72.663a.278.278 0 0 1-.336-.332z"/></g></g></g></g></svg>