<svg xmlns="http://www.w3.org/2000/svg" width="24" height="25" viewBox="0 0 24 25"><g><g><path fill="#707070" d="M2.25 24.5A2.25 2.25 0 0 1 0 22.25V9.945c0-.587.368-1.366.82-1.738.192-.158 5.189-4.177 6.336-5.089C8.22 2.268 9.975.5 12 .5c2.036 0 3.808 1.79 4.844 2.618 1.102.877 6.12 4.912 6.34 5.094.45.372.816 1.15.816 1.734V22.25a2.25 2.25 0 0 1-2.25 2.25zm19.5-2.531v-11.89l-.008-.058a.32.32 0 0 0-.096-.16c-.744-.601-5.1-4.105-6.205-4.983C14.619 4.22 13.11 2.75 12 2.75c-1.107 0-2.59 1.447-3.442 2.128-1.106.878-5.461 4.381-6.205 4.982a.282.282 0 0 0-.104.219v11.89c0 .155.126.28.281.28H21.47a.281.281 0 0 0 .28-.28zM7.156 16.632c-.53-.42-1.956-1.567-3.324-2.666a.563.563 0 0 1-.082-.796l.715-.869a.563.563 0 0 1 .787-.08c1.34 1.078 2.745 2.204 3.307 2.651C9.382 15.53 10.889 17 12 17c1.106 0 2.59-1.447 3.44-2.128a1250.8 1250.8 0 0 0 3.309-2.651.563.563 0 0 1 .786.08l.715.87c.2.24.162.599-.082.795a1173.538 1173.538 0 0 1-3.324 2.666c-1.065.85-2.818 2.618-4.844 2.618-2.037 0-3.81-1.792-4.844-2.618z"/></g></g></svg>