<svg xmlns="http://www.w3.org/2000/svg" width="21" height="22" viewBox="0 0 21 22"><g><g><path fill="#707070" d="M1.477 16.11a10.417 10.417 0 0 1-1.388-5.204C.089 5.17 4.758.5 10.495.5c2.78 0 5.395 1.083 7.36 3.052C19.819 5.52 21 8.132 21 10.91c0 5.737-4.772 10.406-10.505 10.406h-.004c-1.744 0-3.455-.436-4.974-1.265L0 21.5zm17.765-5.2c.005-2.31-.998-4.48-2.63-6.116A8.571 8.571 0 0 0 10.5 2.258c-4.772 0-8.653 3.881-8.653 8.648 0 1.636.455 3.225 1.322 4.603l.206.328-.872 3.193 3.272-.858.313.187a8.637 8.637 0 0 0 4.407 1.205c4.767 0 8.747-3.881 8.747-8.653zm-8.536 4.309c-2.61-1.13-4.312-3.755-4.443-3.928-.127-.174-1.06-1.411-1.06-2.691 0-1.28.67-1.908.909-2.17a.965.965 0 0 1 .694-.324c.173 0 .347 0 .497.01.16.009.375-.061.586.445.216.52.736 1.8.801 1.931.066.131.108.281.024.455-.497.994-1.031.96-.764 1.42 1.008 1.73 2.01 2.33 3.539 3.094.258.131.413.108.563-.066.154-.178.652-.759.825-1.022.173-.262.347-.22.585-.13.24.084 1.519.712 1.777.843.257.127.431.192.492.31.066.107.066.627-.15 1.237-.216.61-1.252 1.162-1.753 1.237-.824.122-1.472.061-3.122-.651z"/></g></g></svg>