<svg xmlns="http://www.w3.org/2000/svg" width="22" height="22" viewBox="0 0 22 22"><g><g><g><g><g><path fill="#666" d="M21.62 13.846a10.921 10.921 0 0 1-5.122 6.676 10.932 10.932 0 0 1-8.344 1.099 10.923 10.923 0 0 1-6.676-5.123A10.925 10.925 0 0 1 .38 8.154a10.92 10.92 0 0 1 5.122-6.676A10.923 10.923 0 0 1 13.845.379c2.837.76 5.209 2.58 6.677 5.123a10.922 10.922 0 0 1 1.098 8.344zm-2.09-7.771a9.786 9.786 0 0 0-5.98-4.59 9.792 9.792 0 0 0-7.474.984 9.787 9.787 0 0 0-4.59 5.981 9.784 9.784 0 0 0 .983 7.475 9.786 9.786 0 0 0 5.982 4.59c2.54.68 5.195.331 7.474-.984a9.786 9.786 0 0 0 4.589-5.982 9.788 9.788 0 0 0-.983-7.474z"/></g></g></g><g><g><g><path fill="#666" d="M11 15c-1.8 0-3.736-.646-5.6-1.87-1.393-.914-2.254-1.82-2.29-1.858a.391.391 0 0 1 0-.544c.036-.038.897-.944 2.29-1.859C7.264 7.647 9.2 7 11 7c1.799 0 3.735.646 5.6 1.87 1.394.914 2.254 1.82 2.29 1.858a.39.39 0 0 1 0 .544c-.036.038-.896.944-2.29 1.858C14.735 14.354 12.8 15 11 15zm-6.928-4c.348.326 1.005.899 1.872 1.466 1.188.776 3.03 1.703 5.055 1.703 2.027 0 3.869-.927 5.057-1.703A14.038 14.038 0 0 0 17.927 11a14.013 14.013 0 0 0-1.87-1.466c-1.19-.776-3.031-1.703-5.058-1.703-2.025 0-3.867.927-5.055 1.703A14.07 14.07 0 0 0 4.072 11z"/></g><g><path fill="#666" d="M10.692 13.857c-1.527 0-2.769-1.153-2.769-2.571 0-1.418 1.242-2.572 2.769-2.572.671 0 1.32.226 1.824.637a.394.394 0 0 1 .042.585.47.47 0 0 1-.63.039 1.962 1.962 0 0 0-1.236-.431c-1.034 0-1.876.781-1.876 1.742 0 .96.842 1.742 1.876 1.742 1.034 0 1.876-.782 1.876-1.742 0-.23.2-.415.447-.415.246 0 .446.186.446.415 0 1.417-1.242 2.571-2.77 2.571z"/></g><g><path fill="#666" d="M10.692 12.143c-.508 0-.922-.385-.922-.857 0-.473.414-.858.922-.858.51 0 .923.385.923.858 0 .472-.414.857-.923.857z"/></g></g></g></g></g></svg>